<svg width="161" height="52" viewBox="0 0 161 52" fill="none" xmlns="http://www.w3.org/2000/svg">
<g clip-path="url(#clip0_1_2636)">
<g clip-path="url(#clip1_1_2636)">
<g clip-path="url(#clip2_1_2636)">
<path d="M161 0.100098H0V51.1001H161V0.100098Z" fill="#1C1B3C"/>
<path d="M31.1289 33.8486C30.0035 35.4605 28.8103 37.0334 26.9934 37.0594C25.1766 37.0984 24.5935 36.0324 22.5326 36.0324C20.4581 36.0324 19.8208 37.0334 18.0988 37.0984C16.3226 37.1634 14.9803 35.3825 13.8414 33.8096C11.5228 30.5988 9.7466 24.6842 12.133 20.7065C13.3126 18.7306 15.4278 17.4827 17.7192 17.4437C19.4547 17.4177 21.1089 18.5746 22.1801 18.5746C23.2376 18.5746 25.2444 17.1837 27.346 17.3917C28.2273 17.4307 30.695 17.7297 32.2814 19.9655C32.1594 20.0435 29.3391 21.6294 29.3662 24.9182C29.4069 28.8439 32.9593 30.1568 33 30.1698C32.9593 30.2608 32.4305 32.0417 31.1289 33.8486ZM23.3868 13.05C24.3766 11.971 26.0172 11.1521 27.3731 11.1001C27.5494 12.621 26.9121 14.1549 25.963 15.2468C25.0274 16.3518 23.4817 17.2097 21.9631 17.0927C21.7597 15.5978 22.519 14.0379 23.3868 13.05Z" fill="white"/>
<path d="M47.9237 19.1V18.068H50.2397C50.8557 18.068 51.3957 17.936 51.8597 17.672C52.3237 17.4 52.6837 17.028 52.9397 16.556C53.2037 16.084 53.3357 15.54 53.3357 14.924C53.3357 14.316 53.2037 13.776 52.9397 13.304C52.6757 12.832 52.3117 12.464 51.8477 12.2C51.3837 11.936 50.8477 11.804 50.2397 11.804H47.9357V10.772H50.2637C50.8717 10.772 51.4317 10.876 51.9437 11.084C52.4637 11.292 52.9117 11.584 53.2877 11.96C53.6717 12.336 53.9677 12.776 54.1757 13.28C54.3917 13.784 54.4997 14.336 54.4997 14.936C54.4997 15.528 54.3917 16.08 54.1757 16.592C53.9677 17.096 53.6757 17.536 53.2997 17.912C52.9237 18.288 52.4757 18.58 51.9557 18.788C51.4437 18.996 50.8877 19.1 50.2877 19.1H47.9237ZM47.1797 19.1V10.772H48.3077V19.1H47.1797ZM58.5945 19.22C58.0345 19.22 57.5305 19.088 57.0825 18.824C56.6345 18.56 56.2785 18.204 56.0145 17.756C55.7505 17.3 55.6185 16.792 55.6185 16.232C55.6185 15.68 55.7505 15.184 56.0145 14.744C56.2785 14.296 56.6345 13.94 57.0825 13.676C57.5305 13.412 58.0345 13.28 58.5945 13.28C59.1465 13.28 59.6465 13.412 60.0945 13.676C60.5505 13.932 60.9105 14.284 61.1745 14.732C61.4385 15.18 61.5705 15.68 61.5705 16.232C61.5705 16.792 61.4385 17.3 61.1745 17.756C60.9105 18.204 60.5505 18.56 60.0945 18.824C59.6465 19.088 59.1465 19.22 58.5945 19.22ZM58.5945 18.176C58.9545 18.176 59.2745 18.092 59.5545 17.924C59.8345 17.756 60.0545 17.528 60.2145 17.24C60.3745 16.944 60.4545 16.608 60.4545 16.232C60.4545 15.864 60.3705 15.536 60.2025 15.248C60.0425 14.96 59.8225 14.736 59.5425 14.576C59.2705 14.408 58.9545 14.324 58.5945 14.324C58.2345 14.324 57.9145 14.408 57.6345 14.576C57.3545 14.736 57.1345 14.96 56.9745 15.248C56.8145 15.536 56.7345 15.864 56.7345 16.232C56.7345 16.608 56.8145 16.944 56.9745 17.24C57.1345 17.528 57.3545 17.756 57.6345 17.924C57.9145 18.092 58.2345 18.176 58.5945 18.176ZM64.3753 19.1L62.1193 13.4H63.2473L64.8793 17.84H64.5193L66.1393 13.4H66.7633L68.3833 17.84H68.0233L69.6553 13.4H70.7833L68.5393 19.1H67.9033L66.2593 14.792H66.6553L64.9993 19.1H64.3753ZM75.8953 19.1V15.776C75.8953 15.344 75.7593 14.988 75.4873 14.708C75.2153 14.428 74.8633 14.288 74.4313 14.288C74.1433 14.288 73.8873 14.352 73.6633 14.48C73.4393 14.608 73.2633 14.784 73.1353 15.008C73.0073 15.232 72.9433 15.488 72.9433 15.776L72.4993 15.524C72.4993 15.092 72.5953 14.708 72.7873 14.372C72.9793 14.036 73.2473 13.772 73.5913 13.58C73.9353 13.38 74.3233 13.28 74.7553 13.28C75.1873 13.28 75.5673 13.388 75.8953 13.604C76.2313 13.82 76.4953 14.104 76.6873 14.456C76.8793 14.8 76.9753 15.168 76.9753 15.56V19.1H75.8953ZM71.8633 19.1V13.4H72.9433V19.1H71.8633ZM78.5575 19.1V10.532H79.6375V19.1H78.5575ZM83.9417 19.22C83.3817 19.22 82.8777 19.088 82.4297 18.824C81.9817 18.56 81.6257 18.204 81.3617 17.756C81.0977 17.3 80.9657 16.792 80.9657 16.232C80.9657 15.68 81.0977 15.184 81.3617 14.744C81.6257 14.296 81.9817 13.94 82.4297 13.676C82.8777 13.412 83.3817 13.28 83.9417 13.28C84.4937 13.28 84.9937 13.412 85.4417 13.676C85.8977 13.932 86.2577 14.284 86.5217 14.732C86.7857 15.18 86.9177 15.68 86.9177 16.232C86.9177 16.792 86.7857 17.3 86.5217 17.756C86.2577 18.204 85.8977 18.56 85.4417 18.824C84.9937 19.088 84.4937 19.22 83.9417 19.22ZM83.9417 18.176C84.3017 18.176 84.6217 18.092 84.9017 17.924C85.1817 17.756 85.4017 17.528 85.5617 17.24C85.7217 16.944 85.8017 16.608 85.8017 16.232C85.8017 15.864 85.7177 15.536 85.5497 15.248C85.3897 14.96 85.1697 14.736 84.8897 14.576C84.6177 14.408 84.3017 14.324 83.9417 14.324C83.5817 14.324 83.2617 14.408 82.9817 14.576C82.7017 14.736 82.4817 14.96 82.3217 15.248C82.1617 15.536 82.0817 15.864 82.0817 16.232C82.0817 16.608 82.1617 16.944 82.3217 17.24C82.4817 17.528 82.7017 17.756 82.9817 17.924C83.2617 18.092 83.5817 18.176 83.9417 18.176ZM90.6785 19.22C90.1585 19.22 89.6865 19.092 89.2625 18.836C88.8385 18.572 88.5025 18.216 88.2545 17.768C88.0145 17.32 87.8945 16.816 87.8945 16.256C87.8945 15.696 88.0145 15.192 88.2545 14.744C88.5025 14.296 88.8345 13.94 89.2505 13.676C89.6745 13.412 90.1505 13.28 90.6785 13.28C91.1105 13.28 91.4945 13.372 91.8305 13.556C92.1745 13.732 92.4505 13.98 92.6585 14.3C92.8665 14.612 92.9825 14.976 93.0065 15.392V17.108C92.9825 17.516 92.8665 17.88 92.6585 18.2C92.4585 18.52 92.1865 18.772 91.8425 18.956C91.5065 19.132 91.1185 19.22 90.6785 19.22ZM90.8585 18.2C91.3945 18.2 91.8265 18.02 92.1545 17.66C92.4825 17.292 92.6465 16.824 92.6465 16.256C92.6465 15.864 92.5705 15.524 92.4185 15.236C92.2745 14.94 92.0665 14.712 91.7945 14.552C91.5225 14.384 91.2065 14.3 90.8465 14.3C90.4865 14.3 90.1665 14.384 89.8865 14.552C89.6145 14.72 89.3985 14.952 89.2385 15.248C89.0865 15.536 89.0105 15.868 89.0105 16.244C89.0105 16.628 89.0865 16.968 89.2385 17.264C89.3985 17.552 89.6185 17.78 89.8985 17.948C90.1785 18.116 90.4985 18.2 90.8585 18.2ZM92.5745 19.1V17.564L92.7785 16.172L92.5745 14.792V13.4H93.6665V19.1H92.5745ZM97.7709 19.22C97.2429 19.22 96.7709 19.092 96.3549 18.836C95.9389 18.572 95.6069 18.216 95.3589 17.768C95.1189 17.32 94.9989 16.816 94.9989 16.256C94.9989 15.696 95.1189 15.192 95.3589 14.744C95.6069 14.296 95.9389 13.94 96.3549 13.676C96.7709 13.412 97.2429 13.28 97.7709 13.28C98.1949 13.28 98.5789 13.372 98.9229 13.556C99.2669 13.732 99.5429 13.98 99.7509 14.3C99.9669 14.612 100.086 14.976 100.11 15.392V17.108C100.086 17.516 99.9709 17.88 99.7629 18.2C99.5549 18.52 99.2789 18.772 98.9349 18.956C98.5909 19.132 98.2029 19.22 97.7709 19.22ZM97.9509 18.2C98.3109 18.2 98.6229 18.116 98.8869 17.948C99.1589 17.78 99.3709 17.552 99.5229 17.264C99.6749 16.968 99.7509 16.632 99.7509 16.256C99.7509 15.864 99.6709 15.524 99.5109 15.236C99.3589 14.948 99.1469 14.72 98.8749 14.552C98.6109 14.384 98.2989 14.3 97.9389 14.3C97.5789 14.3 97.2629 14.384 96.9909 14.552C96.7189 14.72 96.5029 14.952 96.3429 15.248C96.1909 15.536 96.1149 15.868 96.1149 16.244C96.1149 16.628 96.1909 16.968 96.3429 17.264C96.5029 17.552 96.7189 17.78 96.9909 17.948C97.2709 18.116 97.5909 18.2 97.9509 18.2ZM100.77 19.1H99.6789V17.564L99.8829 16.172L99.6789 14.792V10.532H100.77V19.1ZM109.063 19.22C108.471 19.22 107.919 19.112 107.407 18.896C106.895 18.672 106.447 18.364 106.063 17.972C105.679 17.572 105.379 17.112 105.163 16.592C104.955 16.072 104.851 15.516 104.851 14.924C104.851 14.324 104.955 13.768 105.163 13.256C105.379 12.736 105.675 12.28 106.051 11.888C106.435 11.496 106.879 11.192 107.383 10.976C107.895 10.76 108.447 10.652 109.039 10.652C109.631 10.652 110.179 10.76 110.683 10.976C111.195 11.192 111.643 11.496 112.027 11.888C112.411 12.28 112.711 12.736 112.927 13.256C113.143 13.776 113.251 14.336 113.251 14.936C113.251 15.528 113.143 16.084 112.927 16.604C112.711 17.124 112.411 17.58 112.027 17.972C111.651 18.364 111.207 18.672 110.695 18.896C110.191 19.112 109.647 19.22 109.063 19.22ZM109.039 18.14C109.639 18.14 110.163 18.004 110.611 17.732C111.067 17.452 111.427 17.072 111.691 16.592C111.955 16.104 112.087 15.548 112.087 14.924C112.087 14.46 112.011 14.036 111.859 13.652C111.707 13.26 111.495 12.92 111.223 12.632C110.951 12.344 110.631 12.124 110.263 11.972C109.895 11.812 109.487 11.732 109.039 11.732C108.447 11.732 107.923 11.868 107.467 12.14C107.019 12.412 106.663 12.788 106.399 13.268C106.143 13.748 106.015 14.3 106.015 14.924C106.015 15.388 106.087 15.82 106.231 16.22C106.383 16.612 106.591 16.952 106.855 17.24C107.127 17.52 107.447 17.74 107.815 17.9C108.191 18.06 108.599 18.14 109.039 18.14ZM118.758 19.1V15.776C118.758 15.344 118.622 14.988 118.35 14.708C118.078 14.428 117.726 14.288 117.294 14.288C117.006 14.288 116.75 14.352 116.526 14.48C116.302 14.608 116.126 14.784 115.998 15.008C115.87 15.232 115.806 15.488 115.806 15.776L115.362 15.524C115.362 15.092 115.458 14.708 115.65 14.372C115.842 14.036 116.11 13.772 116.454 13.58C116.798 13.38 117.186 13.28 117.618 13.28C118.05 13.28 118.43 13.388 118.758 13.604C119.094 13.82 119.358 14.104 119.55 14.456C119.742 14.8 119.838 15.168 119.838 15.56V19.1H118.758ZM114.726 19.1V13.4H115.806V19.1H114.726ZM126.249 19.1V11.012H127.377V19.1H126.249ZM123.417 11.804V10.772H130.197V11.804H123.417ZM135.501 19.1V15.776C135.501 15.344 135.365 14.988 135.093 14.708C134.821 14.428 134.469 14.288 134.037 14.288C133.749 14.288 133.493 14.352 133.269 14.48C133.045 14.608 132.869 14.784 132.741 15.008C132.613 15.232 132.549 15.488 132.549 15.776L132.105 15.524C132.105 15.092 132.201 14.708 132.393 14.372C132.585 14.036 132.853 13.772 133.197 13.58C133.541 13.38 133.929 13.28 134.361 13.28C134.793 13.28 135.173 13.376 135.501 13.568C135.837 13.76 136.101 14.028 136.293 14.372C136.485 14.716 136.581 15.112 136.581 15.56V19.1H135.501ZM131.469 19.1V10.532H132.549V19.1H131.469ZM140.803 19.22C140.235 19.22 139.723 19.092 139.267 18.836C138.811 18.572 138.451 18.216 138.187 17.768C137.923 17.32 137.791 16.812 137.791 16.244C137.791 15.684 137.919 15.18 138.175 14.732C138.439 14.284 138.791 13.932 139.231 13.676C139.679 13.412 140.179 13.28 140.731 13.28C141.259 13.28 141.723 13.4 142.123 13.64C142.531 13.88 142.847 14.212 143.071 14.636C143.303 15.06 143.419 15.54 143.419 16.076C143.419 16.156 143.415 16.244 143.407 16.34C143.399 16.428 143.383 16.532 143.359 16.652H138.547V15.752H142.783L142.387 16.1C142.387 15.716 142.319 15.392 142.183 15.128C142.047 14.856 141.855 14.648 141.607 14.504C141.359 14.352 141.059 14.276 140.707 14.276C140.339 14.276 140.015 14.356 139.735 14.516C139.455 14.676 139.239 14.9 139.087 15.188C138.935 15.476 138.859 15.816 138.859 16.208C138.859 16.608 138.939 16.96 139.099 17.264C139.259 17.56 139.487 17.792 139.783 17.96C140.079 18.12 140.419 18.2 140.803 18.2C141.123 18.2 141.415 18.144 141.679 18.032C141.951 17.92 142.183 17.752 142.375 17.528L143.071 18.236C142.799 18.556 142.463 18.8 142.063 18.968C141.671 19.136 141.251 19.22 140.803 19.22Z" fill="#B2BBCC"/>
<path d="M45.1699 37.1001L49.7779 25.9001H51.0579L55.6339 37.1001H53.6499L50.0659 28.0281H50.7379L47.1219 37.1001H45.1699ZM47.4419 34.9401V33.3401H53.3779V34.9401H47.4419ZM61.2683 37.2601C60.6816 37.2601 60.159 37.1374 59.7003 36.8921C59.2416 36.6361 58.879 36.2894 58.6123 35.8521C58.3563 35.4148 58.2283 34.9188 58.2283 34.3641V32.1561C58.2283 31.6014 58.3616 31.1054 58.6283 30.6681C58.895 30.2308 59.2576 29.8894 59.7163 29.6441C60.175 29.3881 60.6923 29.2601 61.2683 29.2601C61.9616 29.2601 62.5856 29.4414 63.1403 29.8041C63.7056 30.1561 64.1483 30.6361 64.4683 31.2441C64.799 31.8414 64.9643 32.5188 64.9643 33.2761C64.9643 34.0228 64.799 34.7001 64.4683 35.3081C64.1483 35.9054 63.7056 36.3801 63.1403 36.7321C62.5856 37.0841 61.9616 37.2601 61.2683 37.2601ZM60.9803 35.5961C61.407 35.5961 61.7803 35.5001 62.1003 35.3081C62.431 35.1054 62.687 34.8281 62.8683 34.4761C63.0603 34.1241 63.1563 33.7188 63.1563 33.2601C63.1563 32.8014 63.0603 32.3961 62.8683 32.0441C62.687 31.6921 62.431 31.4201 62.1003 31.2281C61.7803 31.0254 61.407 30.9241 60.9803 30.9241C60.5536 30.9241 60.175 31.0254 59.8443 31.2281C59.5136 31.4201 59.2576 31.6921 59.0763 32.0441C58.895 32.3961 58.8043 32.8014 58.8043 33.2601C58.8043 33.7188 58.895 34.1241 59.0763 34.4761C59.2576 34.8281 59.5136 35.1054 59.8443 35.3081C60.175 35.5001 60.5536 35.5961 60.9803 35.5961ZM57.1563 40.3001V29.4201H58.9163V31.4841L58.6123 33.3561L58.9163 35.2121V40.3001H57.1563ZM70.7096 37.2601C70.1229 37.2601 69.6002 37.1374 69.1416 36.8921C68.6829 36.6361 68.3202 36.2894 68.0536 35.8521C67.7976 35.4148 67.6696 34.9188 67.6696 34.3641V32.1561C67.6696 31.6014 67.8029 31.1054 68.0696 30.6681C68.3362 30.2308 68.6989 29.8894 69.1576 29.6441C69.6162 29.3881 70.1336 29.2601 70.7096 29.2601C71.4029 29.2601 72.0269 29.4414 72.5816 29.8041C73.1469 30.1561 73.5896 30.6361 73.9096 31.2441C74.2402 31.8414 74.4056 32.5188 74.4056 33.2761C74.4056 34.0228 74.2402 34.7001 73.9096 35.3081C73.5896 35.9054 73.1469 36.3801 72.5816 36.7321C72.0269 37.0841 71.4029 37.2601 70.7096 37.2601ZM70.4216 35.5961C70.8482 35.5961 71.2216 35.5001 71.5416 35.3081C71.8722 35.1054 72.1282 34.8281 72.3096 34.4761C72.5016 34.1241 72.5976 33.7188 72.5976 33.2601C72.5976 32.8014 72.5016 32.3961 72.3096 32.0441C72.1282 31.6921 71.8722 31.4201 71.5416 31.2281C71.2216 31.0254 70.8482 30.9241 70.4216 30.9241C69.9949 30.9241 69.6162 31.0254 69.2856 31.2281C68.9549 31.4201 68.6989 31.6921 68.5176 32.0441C68.3362 32.3961 68.2456 32.8014 68.2456 33.2601C68.2456 33.7188 68.3362 34.1241 68.5176 34.4761C68.6989 34.8281 68.9549 35.1054 69.2856 35.3081C69.6162 35.5001 69.9949 35.5961 70.4216 35.5961ZM66.5976 40.3001V29.4201H68.3576V31.4841L68.0536 33.3561L68.3576 35.2121V40.3001H66.5976ZM76.0388 37.1001V25.5801H77.7988V37.1001H76.0388ZM83.4856 37.2601C82.7176 37.2601 82.0242 37.0894 81.4056 36.7481C80.7976 36.3961 80.3122 35.9161 79.9496 35.3081C79.5976 34.7001 79.4216 34.0174 79.4216 33.2601C79.4216 32.5028 79.5976 31.8254 79.9496 31.2281C80.3016 30.6201 80.7762 30.1401 81.3736 29.7881C81.9816 29.4361 82.6536 29.2601 83.3896 29.2601C84.1042 29.2601 84.7336 29.4254 85.2776 29.7561C85.8322 30.0868 86.2642 30.5401 86.5736 31.1161C86.8936 31.6921 87.0536 32.3481 87.0536 33.0841C87.0536 33.2121 87.0429 33.3454 87.0216 33.4841C87.0109 33.6121 86.9896 33.7561 86.9576 33.9161H80.6536V32.4761H86.0456L85.3896 33.0521C85.3682 32.5828 85.2776 32.1881 85.1176 31.8681C84.9576 31.5481 84.7282 31.3028 84.4296 31.1321C84.1416 30.9614 83.7842 30.8761 83.3576 30.8761C82.9096 30.8761 82.5202 30.9721 82.1896 31.1641C81.8589 31.3561 81.6029 31.6281 81.4216 31.9801C81.2402 32.3214 81.1496 32.7321 81.1496 33.2121C81.1496 33.6921 81.2456 34.1134 81.4376 34.4761C81.6296 34.8388 81.9016 35.1214 82.2536 35.3241C82.6056 35.5161 83.0109 35.6121 83.4696 35.6121C83.8642 35.6121 84.2269 35.5428 84.5576 35.4041C84.8989 35.2654 85.1869 35.0628 85.4216 34.7961L86.5416 35.9321C86.1682 36.3694 85.7149 36.7001 85.1816 36.9241C84.6482 37.1481 84.0829 37.2601 83.4856 37.2601ZM95.3476 37.2601C94.4622 37.2601 93.7102 37.1001 93.0916 36.7801C92.4729 36.4601 91.9182 35.9908 91.4276 35.3721L92.6756 34.1241C92.9849 34.5721 93.3529 34.9241 93.7796 35.1801C94.2062 35.4254 94.7502 35.5481 95.4116 35.5481C96.0302 35.5481 96.5209 35.4201 96.8836 35.1641C97.2569 34.9081 97.4436 34.5561 97.4436 34.1081C97.4436 33.7348 97.3476 33.4308 97.1556 33.1961C96.9636 32.9614 96.7076 32.7694 96.3876 32.6201C96.0782 32.4601 95.7316 32.3214 95.3476 32.2041C94.9742 32.0761 94.5956 31.9374 94.2116 31.7881C93.8382 31.6281 93.4916 31.4308 93.1716 31.1961C92.8622 30.9614 92.6116 30.6574 92.4196 30.2841C92.2276 29.9108 92.1316 29.4361 92.1316 28.8601C92.1316 28.1988 92.2916 27.6388 92.6116 27.1801C92.9422 26.7108 93.3849 26.3534 93.9396 26.1081C94.4942 25.8628 95.1129 25.7401 95.7956 25.7401C96.5316 25.7401 97.1876 25.8841 97.7636 26.1721C98.3502 26.4601 98.8249 26.8281 99.1876 27.2761L97.9396 28.5241C97.6196 28.1614 97.2836 27.8948 96.9316 27.7241C96.5902 27.5428 96.1956 27.4521 95.7476 27.4521C95.1929 27.4521 94.7556 27.5641 94.4356 27.7881C94.1262 28.0121 93.9716 28.3268 93.9716 28.7321C93.9716 29.0734 94.0676 29.3508 94.2596 29.5641C94.4516 29.7668 94.7022 29.9428 95.0116 30.0921C95.3316 30.2308 95.6782 30.3641 96.0516 30.4921C96.4356 30.6201 96.8142 30.7641 97.1876 30.9241C97.5716 31.0841 97.9182 31.2921 98.2276 31.5481C98.5476 31.7934 98.8036 32.1134 98.9956 32.5081C99.1876 32.9028 99.2836 33.3988 99.2836 33.9961C99.2836 34.9988 98.9262 35.7934 98.2116 36.3801C97.5076 36.9668 96.5529 37.2601 95.3476 37.2601ZM102.206 37.1001V26.2201H103.966V37.1001H102.206ZM100.366 31.0201V29.4201H105.806V31.0201H100.366ZM110.546 37.2601C109.8 37.2601 109.122 37.0841 108.514 36.7321C107.906 36.3694 107.421 35.8841 107.058 35.2761C106.706 34.6681 106.53 33.9908 106.53 33.2441C106.53 32.4974 106.706 31.8254 107.058 31.2281C107.421 30.6308 107.906 30.1561 108.514 29.8041C109.122 29.4414 109.8 29.2601 110.546 29.2601C111.304 29.2601 111.986 29.4361 112.594 29.7881C113.202 30.1401 113.682 30.6201 114.034 31.2281C114.397 31.8254 114.578 32.4974 114.578 33.2441C114.578 33.9908 114.397 34.6681 114.034 35.2761C113.682 35.8841 113.202 36.3694 112.594 36.7321C111.986 37.0841 111.304 37.2601 110.546 37.2601ZM110.546 35.5641C110.984 35.5641 111.368 35.4681 111.698 35.2761C112.04 35.0734 112.301 34.7961 112.482 34.4441C112.674 34.0921 112.77 33.6921 112.77 33.2441C112.77 32.7961 112.674 32.4014 112.482 32.0601C112.29 31.7188 112.029 31.4521 111.698 31.2601C111.368 31.0574 110.984 30.9561 110.546 30.9561C110.12 30.9561 109.736 31.0574 109.394 31.2601C109.064 31.4521 108.802 31.7188 108.61 32.0601C108.429 32.4014 108.338 32.7961 108.338 33.2441C108.338 33.6921 108.429 34.0921 108.61 34.4441C108.802 34.7961 109.064 35.0734 109.394 35.2761C109.736 35.4681 110.12 35.5641 110.546 35.5641ZM116.202 37.1001V29.4201H117.962V37.1001H116.202ZM117.962 32.8281L117.354 32.5241C117.354 31.5534 117.567 30.7694 117.994 30.1721C118.431 29.5641 119.087 29.2601 119.962 29.2601C120.346 29.2601 120.693 29.3294 121.002 29.4681C121.311 29.6068 121.599 29.8308 121.866 30.1401L120.714 31.3241C120.575 31.1748 120.421 31.0681 120.25 31.0041C120.079 30.9401 119.882 30.9081 119.658 30.9081C119.167 30.9081 118.762 31.0628 118.442 31.3721C118.122 31.6814 117.962 32.1668 117.962 32.8281ZM126.211 37.2601C125.443 37.2601 124.75 37.0894 124.131 36.7481C123.523 36.3961 123.038 35.9161 122.675 35.3081C122.323 34.7001 122.147 34.0174 122.147 33.2601C122.147 32.5028 122.323 31.8254 122.675 31.2281C123.027 30.6201 123.502 30.1401 124.099 29.7881C124.707 29.4361 125.379 29.2601 126.115 29.2601C126.83 29.2601 127.459 29.4254 128.003 29.7561C128.558 30.0868 128.99 30.5401 129.299 31.1161C129.619 31.6921 129.779 32.3481 129.779 33.0841C129.779 33.2121 129.769 33.3454 129.747 33.4841C129.737 33.6121 129.715 33.7561 129.683 33.9161H123.379V32.4761H128.771L128.115 33.0521C128.094 32.5828 128.003 32.1881 127.843 31.8681C127.683 31.5481 127.454 31.3028 127.155 31.1321C126.867 30.9614 126.51 30.8761 126.083 30.8761C125.635 30.8761 125.246 30.9721 124.915 31.1641C124.585 31.3561 124.329 31.6281 124.147 31.9801C123.966 32.3214 123.875 32.7321 123.875 33.2121C123.875 33.6921 123.971 34.1134 124.163 34.4761C124.355 34.8388 124.627 35.1214 124.979 35.3241C125.331 35.5161 125.737 35.6121 126.195 35.6121C126.59 35.6121 126.953 35.5428 127.283 35.4041C127.625 35.2654 127.913 35.0628 128.147 34.7961L129.267 35.9321C128.894 36.3694 128.441 36.7001 127.907 36.9241C127.374 37.1481 126.809 37.2601 126.211 37.2601Z" fill="white"/>
</g>
</g>
</g>
<defs>
<clipPath id="clip0_1_2636">
<rect y="0.100098" width="161" height="51" rx="4" fill="white"/>
</clipPath>
<clipPath id="clip1_1_2636">
<rect width="161" height="51" fill="white" transform="translate(0 0.100098)"/>
</clipPath>
<clipPath id="clip2_1_2636">
<rect width="161" height="51" fill="white" transform="translate(0 0.100098)"/>
</clipPath>
</defs>
</svg>
